<svg width="46" height="45" viewBox="0 0 46 45" fill="none" xmlns="http://www.w3.org/2000/svg">
<path fill-rule="evenodd" clip-rule="evenodd" d="M8.99998 0.187622C10.5464 0.187622 11.8 1.44122 11.8 2.98762V5.78762H14.6C16.1464 5.78762 17.4 7.04122 17.4 8.58762C17.4 10.134 16.1464 11.3876 14.6 11.3876H11.8V14.1876C11.8 15.734 10.5464 16.9876 8.99998 16.9876C7.45358 16.9876 6.19998 15.734 6.19998 14.1876V11.3876H3.39998C1.85358 11.3876 0.599976 10.134 0.599976 8.58762C0.599976 7.04122 1.85358 5.78762 3.39998 5.78762H6.19998V2.98762C6.19998 1.44122 7.45358 0.187622 8.99998 0.187622ZM8.99998 28.1876C10.5464 28.1876 11.8 29.4412 11.8 30.9876V33.7876H14.6C16.1464 33.7876 17.4 35.0412 17.4 36.5876C17.4 38.134 16.1464 39.3876 14.6 39.3876H11.8V42.1876C11.8 43.734 10.5464 44.9876 8.99998 44.9876C7.45358 44.9876 6.19998 43.734 6.19998 42.1876V39.3876H3.39998C1.85358 39.3876 0.599976 38.134 0.599976 36.5876C0.599976 35.0412 1.85358 33.7876 3.39998 33.7876H6.19998V30.9876C6.19998 29.4412 7.45358 28.1876 8.99998 28.1876Z" fill="#FF7500"/>
<path fill-rule="evenodd" clip-rule="evenodd" d="M28.5998 0.187622C29.8703 0.187622 30.9815 1.04297 31.3066 2.27112L34.6084 14.7446L43.9991 20.1623C44.8658 20.6624 45.3998 21.587 45.3998 22.5876C45.3998 23.5883 44.8658 24.5129 43.9991 25.0129L34.6084 30.4306L31.3066 42.9041C30.9815 44.1323 29.8703 44.9876 28.5998 44.9876C27.3294 44.9876 26.2182 44.1323 25.8931 42.9041L22.5912 30.4306L13.2007 25.0129C12.334 24.5129 11.8 23.5883 11.8 22.5876C11.8 21.587 12.334 20.6624 13.2007 20.1623L22.5912 14.7446L25.8931 2.27112C26.2182 1.04297 27.3294 0.187622 28.5998 0.187622Z" fill="#FF7500"/>
</svg>
