<svg xmlns="http://www.w3.org/2000/svg" width="227" height="60" fill="none"><g clip-path="url(#a)"><path fill="#252420" d="M19 0 0 13.646V48.65l10.534 10.534-.232-36.764L19 15.308l8.698 7.112-.232 36.764L38 48.65V13.646L19 0Z"/><path fill="#FF7401" d="M25.994 29.592 19 33.791l-6.994-4.199v12.259L19 46.055l6.994-4.204V29.592Z"/></g><path fill="#252420" d="m60.078 21.905-4.89 18.687h-4.829l7.11-22.75h3.015l-.406 4.063Zm3.86 18.687-4.922-18.687-.453-4.063h3.062l7.172 22.75h-4.86Zm.171-8.484v3.797H53.844v-3.797h10.265Zm11.016-15.532v24.016H70.75V16.576h4.375Zm8.89 7.11-5.953 8.406-3.578 4.016-1.546-3.328 2.75-4.016 3.109-5.078h5.219Zm-4.562 16.906-3.687-7.766 3.015-2.78 5.688 10.546h-5.016Zm14.063-3.89v-7.813c0-.51-.063-.917-.188-1.219-.115-.302-.291-.52-.531-.656-.23-.146-.51-.219-.844-.219-.375 0-.687.078-.937.235-.25.156-.438.38-.563.671-.115.292-.172.641-.172 1.047h-4.39c0-.729.14-1.416.421-2.062a4.893 4.893 0 0 1 1.235-1.719c.552-.5 1.208-.89 1.969-1.172.76-.281 1.614-.422 2.562-.422 1.125 0 2.125.193 3 .578a4.466 4.466 0 0 1 2.078 1.797c.51.823.766 1.89.766 3.203v7.532c0 .948.047 1.718.14 2.312.105.594.256 1.104.454 1.531v.266h-4.407c-.197-.469-.349-1.052-.453-1.75a16.307 16.307 0 0 1-.14-2.14Zm.53-6.438.016 2.625h-1.609c-.416 0-.781.068-1.094.203a2.1 2.1 0 0 0-.765.578c-.209.24-.365.521-.469.844a3.68 3.68 0 0 0-.14 1.031c0 .406.057.75.171 1.031.115.282.287.495.516.641.229.146.5.219.812.219.48 0 .896-.1 1.25-.297.355-.198.615-.438.782-.719.177-.281.234-.541.171-.781l1 1.703a7.742 7.742 0 0 1-.515 1.203 5.088 5.088 0 0 1-.797 1.156 3.855 3.855 0 0 1-1.203.875c-.469.22-1.026.329-1.672.329a5.03 5.03 0 0 1-2.484-.625c-.75-.417-1.344-1-1.782-1.75-.427-.75-.64-1.641-.64-2.672 0-.854.135-1.625.406-2.313a4.554 4.554 0 0 1 1.25-1.765c.552-.49 1.25-.865 2.094-1.125.844-.26 1.833-.391 2.969-.391h1.734Zm15.298 6.594V16.592h4.39v24l-3.968.016-.422-3.75Zm-8.766-4.125v-1.125c0-1.375.115-2.578.344-3.61.239-1.03.594-1.89 1.062-2.578.469-.687 1.042-1.198 1.719-1.531.688-.344 1.474-.516 2.359-.516.803 0 1.506.203 2.11.61.614.395 1.135.953 1.562 1.672.427.718.771 1.567 1.032 2.546.26.98.442 2.052.546 3.22v1.624a20.462 20.462 0 0 1-.578 3.094c-.25.958-.593 1.792-1.031 2.5-.427.708-.943 1.266-1.547 1.672-.604.396-1.307.594-2.109.594-.886 0-1.672-.178-2.359-.532-.678-.354-1.25-.875-1.719-1.562-.459-.698-.808-1.552-1.047-2.563-.229-1.02-.344-2.192-.344-3.515Zm4.375-1.125v1.125c0 .791.037 1.474.109 2.047.084.562.214 1.026.391 1.39.188.354.432.62.735.797.302.167.677.25 1.124.25.584 0 1.058-.146 1.422-.437.365-.303.636-.714.813-1.235.187-.531.292-1.14.312-1.828v-2.953a7.439 7.439 0 0 0-.203-1.547 3.881 3.881 0 0 0-.484-1.172 2.238 2.238 0 0 0-.781-.75 2.065 2.065 0 0 0-1.063-.265c-.437 0-.812.088-1.125.265-.302.177-.542.453-.719.828-.177.365-.312.839-.406 1.422-.083.573-.125 1.26-.125 2.063Zm18.891 9.297c-1.156 0-2.183-.178-3.078-.532a6.078 6.078 0 0 1-2.25-1.53c-.615-.678-1.084-1.496-1.407-2.454-.323-.958-.484-2.052-.484-3.281v-1.39c0-1.376.156-2.58.469-3.61.312-1.042.755-1.917 1.328-2.625a5.25 5.25 0 0 1 2.109-1.578c.844-.355 1.797-.532 2.86-.532 1.062 0 1.994.177 2.797.532a4.878 4.878 0 0 1 2.015 1.562c.531.688.932 1.542 1.203 2.563.271 1.02.406 2.208.406 3.562v2h-11.328v-3.078h7.032v-.39c0-.688-.073-1.261-.219-1.72-.146-.468-.375-.817-.688-1.046-.312-.23-.729-.344-1.25-.344-.437 0-.807.088-1.109.266-.302.177-.542.453-.719.828-.177.375-.307.864-.39 1.468a15.582 15.582 0 0 0-.125 2.141v1.39c0 .782.067 1.438.203 1.97.135.52.333.947.593 1.28.271.324.599.558.985.704.385.135.833.203 1.344.203.77 0 1.463-.136 2.078-.406a4.784 4.784 0 0 0 1.593-1.14l1.75 2.655c-.302.396-.718.792-1.25 1.188-.531.396-1.166.719-1.906.969-.739.25-1.594.375-2.562.375Zm12.906-13.72v13.407h-4.391V23.686h4.125l.266 3.5Zm-.625 4.376-1.203.031c-.021-1.187.083-2.281.312-3.281.23-1 .573-1.87 1.032-2.61a5.055 5.055 0 0 1 1.765-1.718c.709-.407 1.537-.61 2.485-.61.614 0 1.182.115 1.703.344.521.219.974.568 1.359 1.047.386.469.682 1.083.891 1.844.208.75.312 1.65.312 2.703v11.281h-4.375v-10.75c0-.75-.073-1.323-.218-1.719-.146-.406-.355-.687-.626-.843-.27-.167-.604-.25-1-.25-.416 0-.781.114-1.093.343-.313.23-.568.552-.766.97a6.178 6.178 0 0 0-.437 1.437 10.62 10.62 0 0 0-.141 1.78Zm8.234-.438-1.578.203a12.85 12.85 0 0 1 .297-3.109c.219-.969.557-1.812 1.016-2.531.458-.73 1.031-1.297 1.718-1.703.698-.407 1.506-.61 2.422-.61.688 0 1.313.115 1.875.344.563.23 1.042.599 1.438 1.11.406.5.713 1.16.922 1.984.219.823.328 1.823.328 3v10.781h-4.391V29.826c0-.76-.073-1.343-.218-1.75-.146-.406-.355-.682-.626-.828-.27-.146-.593-.218-.968-.218s-.703.104-.985.312c-.27.208-.5.5-.687.875a4.733 4.733 0 0 0-.422 1.297 8.55 8.55 0 0 0-.141 1.61Z"/><path fill="#FF7500" d="M160.391 27.295v13.297H156V23.686h4.109l.282 3.61Zm-.657 4.266-1.172.031c-.02-1.27.099-2.411.36-3.422.271-1.01.651-1.87 1.14-2.578.5-.719 1.094-1.266 1.782-1.64.698-.386 1.474-.579 2.328-.579.656 0 1.255.115 1.797.344a3.52 3.52 0 0 1 1.422 1.094c.395.5.703 1.166.921 2 .219.823.329 1.833.329 3.031v10.75h-4.391V29.811c0-.73-.073-1.292-.219-1.688-.146-.406-.364-.687-.656-.843-.292-.167-.656-.25-1.094-.25-.416 0-.786.12-1.109.359-.323.23-.594.547-.813.953a5.703 5.703 0 0 0-.484 1.438 8.866 8.866 0 0 0-.141 1.78Zm19.563 5.14V28.89c0-.51-.063-.917-.188-1.219-.114-.302-.291-.52-.531-.656-.229-.146-.51-.219-.844-.219-.375 0-.687.078-.937.235-.25.156-.438.38-.563.671-.114.292-.172.641-.172 1.047h-4.39c0-.729.14-1.416.422-2.062a4.884 4.884 0 0 1 1.234-1.719c.552-.5 1.208-.89 1.969-1.172.76-.281 1.614-.422 2.562-.422 1.125 0 2.125.193 3 .578a4.471 4.471 0 0 1 2.079 1.797c.51.823.765 1.89.765 3.203v7.532c0 .948.047 1.718.141 2.312.104.594.255 1.104.453 1.531v.266h-4.406c-.198-.469-.349-1.052-.453-1.75a16.256 16.256 0 0 1-.141-2.14Zm.531-6.437.016 2.625h-1.61a2.73 2.73 0 0 0-1.093.203 2.1 2.1 0 0 0-.766.578c-.208.24-.365.521-.469.844-.094.323-.14.667-.14 1.031 0 .406.057.75.172 1.031.114.282.286.495.515.641.229.146.5.219.813.219.479 0 .895-.1 1.25-.297.354-.198.614-.438.781-.719.177-.281.234-.541.172-.781l1 1.703a7.717 7.717 0 0 1-.516 1.203 5.072 5.072 0 0 1-.797 1.156 3.857 3.857 0 0 1-1.203.875c-.469.22-1.026.329-1.672.329a5.029 5.029 0 0 1-2.484-.625c-.75-.417-1.344-1-1.781-1.75-.427-.75-.641-1.641-.641-2.672 0-.854.135-1.625.406-2.313a4.553 4.553 0 0 1 1.25-1.765c.552-.49 1.25-.865 2.094-1.125.844-.26 1.833-.391 2.969-.391h1.734Zm14.61 5.766c0-.292-.099-.553-.297-.782-.198-.229-.511-.463-.938-.703a15.55 15.55 0 0 0-1.703-.828 18.043 18.043 0 0 1-2.047-.969 7.183 7.183 0 0 1-1.515-1.11 4.09 4.09 0 0 1-.922-1.39c-.209-.52-.313-1.114-.313-1.78 0-.72.13-1.381.391-1.985a4.775 4.775 0 0 1 1.156-1.61c.5-.468 1.109-.833 1.828-1.093.729-.271 1.547-.407 2.453-.407 1.271 0 2.36.224 3.266.672.917.438 1.62 1.052 2.109 1.844.49.792.735 1.713.735 2.766h-4.375c0-.375-.058-.709-.172-1a1.399 1.399 0 0 0-.563-.704c-.25-.166-.588-.25-1.015-.25-.313 0-.594.068-.844.204-.24.135-.432.317-.578.546a1.45 1.45 0 0 0-.203.782c0 .229.047.432.14.61.104.176.266.348.485.515.218.166.51.343.875.53.375.178.833.376 1.375.595 1.125.416 2.046.864 2.765 1.343.729.48 1.271 1.042 1.625 1.688.354.635.532 1.422.532 2.36 0 .75-.146 1.432-.438 2.046a4.46 4.46 0 0 1-1.234 1.594c-.542.448-1.193.792-1.954 1.031-.75.24-1.588.36-2.515.36-1.365 0-2.516-.271-3.453-.813-.938-.542-1.646-1.234-2.125-2.078-.479-.854-.719-1.74-.719-2.656h4.156c.021.562.125 1.005.313 1.328.198.312.463.531.797.656.333.125.703.188 1.109.188s.74-.053 1-.157c.271-.114.474-.286.609-.515.136-.24.204-.516.204-.828Zm11.296-19.438v24h-4.375v-24h4.375Zm-.625 14.969-1.187.031c0-1.187.12-2.281.359-3.281.25-1 .61-1.87 1.078-2.61.469-.74 1.037-1.312 1.703-1.718a4.264 4.264 0 0 1 2.235-.61c.698 0 1.333.12 1.906.36s1.068.614 1.485 1.125c.427.51.755 1.182.984 2.015.229.834.344 1.85.344 3.047v10.672h-4.391V29.89c0-.73-.073-1.302-.219-1.719-.146-.417-.364-.708-.656-.875-.292-.177-.656-.265-1.094-.265-.468 0-.87.12-1.203.359-.323.23-.583.547-.781.953a5.312 5.312 0 0 0-.438 1.438 11.995 11.995 0 0 0-.125 1.78Zm16.485-4.11v13.141h-4.375V23.686h4.125l.25 3.765Zm3.984-3.89-.062 4.36a5.556 5.556 0 0 0-.719-.095 9.526 9.526 0 0 0-.719-.03c-.489 0-.906.077-1.25.234a2.08 2.08 0 0 0-.859.671c-.219.292-.386.657-.5 1.094a6.827 6.827 0 0 0-.203 1.485l-.828-.313c0-1.104.083-2.114.25-3.031.177-.927.437-1.73.781-2.406.343-.688.755-1.22 1.234-1.594a2.656 2.656 0 0 1 1.656-.563c.209 0 .427.021.657.063.239.031.427.073.562.125Z"/><defs><clipPath id="a"><path fill="#fff" d="M0 0h38v59.184H0z"/></clipPath></defs></svg>